<!DOCTYPE svg PUBLIC "-//W3C//DTD SVG 1.1//EN" "http://www.w3.org/Graphics/SVG/1.1/DTD/svg11.dtd">
<!-- Uploaded to: SVG Repo, www.svgrepo.com, Transformed by: SVG Repo Mixer Tools -->
<svg height="64px" width="64px" version="1.1" id="Layer_1" xmlns="http://www.w3.org/2000/svg" xmlns:xlink="http://www.w3.org/1999/xlink" viewBox="0 0 512 512" xml:space="preserve" fill="#000000">
<g id="SVGRepo_bgCarrier" stroke-width="0"/>
<g id="SVGRepo_tracerCarrier" stroke-linecap="round" stroke-linejoin="round"/>
<g id="SVGRepo_iconCarrier"> <path style="fill:#F0C419;" d="M256.006,94.571c89.148,0,161.423,72.274,161.423,161.435c0,89.148-72.275,161.423-161.423,161.423 c-89.161,0-161.435-72.275-161.435-161.423C94.571,166.845,166.845,94.571,256.006,94.571z"/> <path d="M256.006,430.04c-95.97,0-174.046-78.072-174.046-174.034c0-95.97,78.077-174.046,174.046-174.046 c95.962,0,174.034,78.077,174.034,174.046C430.04,351.968,351.968,430.04,256.006,430.04z M256.006,107.182 c-82.062,0-148.824,66.762-148.824,148.824c0,82.054,66.762,148.812,148.824,148.812c82.054,0,148.812-66.757,148.812-148.812 C404.818,173.944,338.061,107.182,256.006,107.182z"/> <path d="M256.006,62.211c-6.965,0-12.611-5.646-12.611-12.611V12.611C243.395,5.646,249.041,0,256.006,0 c6.965,0,12.611,5.646,12.611,12.611V49.6C268.617,56.565,262.971,62.211,256.006,62.211z"/> <path d="M202.578,69.252c-5.569,0-10.664-3.716-12.174-9.351l-9.572-35.727c-1.802-6.728,2.191-13.643,8.917-15.445 c6.728-1.807,13.643,2.191,15.445,8.917l9.572,35.727c1.802,6.728-2.191,13.643-8.917,15.445 C204.756,69.112,203.657,69.252,202.578,69.252z"/> <path d="M152.821,89.87c-4.358,0-8.596-2.26-10.933-6.306l-18.501-32.032c-3.483-6.032-1.417-13.745,4.613-17.228 c6.032-3.483,13.745-1.417,17.228,4.613l18.501,32.032c3.483,6.032,1.417,13.745-4.613,17.228 C157.13,89.325,154.961,89.87,152.821,89.87z"/> <path d="M110.057,122.669c-3.227,0-6.456-1.231-8.917-3.694L74.985,92.819c-4.925-4.925-4.925-12.91,0-17.836 c4.925-4.925,12.91-4.925,17.836,0l26.156,26.156c4.925,4.925,4.925,12.91,0,17.836 C116.513,121.438,113.285,122.669,110.057,122.669z"/> <path d="M77.245,165.41c-2.139,0-4.307-0.545-6.293-1.69l-32.032-18.488c-6.032-3.482-8.1-11.194-4.618-17.227 c3.482-6.032,11.195-8.099,17.227-4.618l32.032,18.488c6.032,3.482,8.1,11.194,4.618,17.227 C85.843,163.148,81.603,165.41,77.245,165.41z"/> <path d="M56.645,215.2c-1.081,0-2.178-0.14-3.271-0.433l-35.727-9.572c-6.727-1.802-10.719-8.717-8.917-15.445 c1.802-6.728,8.717-10.721,15.445-8.917l35.727,9.572c6.727,1.802,10.719,8.717,8.917,15.445 C67.309,211.484,62.213,215.2,56.645,215.2z"/> <path d="M49.6,268.617H12.611C5.646,268.617,0,262.971,0,256.006c0-6.965,5.646-12.611,12.611-12.611H49.6 c6.965,0,12.611,5.646,12.611,12.611C62.211,262.971,56.565,268.617,49.6,268.617z"/> <path d="M20.902,331.614c-5.569,0-10.664-3.716-12.174-9.351c-1.802-6.728,2.191-13.643,8.917-15.445l35.727-9.572 c6.726-1.806,13.643,2.191,15.445,8.917c1.802,6.728-2.191,13.643-8.917,15.445l-35.727,9.572 C23.08,331.474,21.981,331.614,20.902,331.614z"/> <path d="M45.236,390.305c-4.36,0-8.598-2.262-10.934-6.308c-3.482-6.033-1.414-13.745,4.618-17.227l32.032-18.488 c6.032-3.481,13.745-1.414,17.227,4.618c3.482,6.033,1.414,13.745-4.618,17.227l-32.032,18.488 C49.543,389.76,47.375,390.305,45.236,390.305z"/> <path d="M83.902,440.722c-3.227,0-6.453-1.231-8.915-3.691c-4.926-4.923-4.928-12.909-0.004-17.835l26.156-26.168 c4.923-4.926,12.908-4.928,17.835-0.004c4.926,4.923,4.928,12.909,0.004,17.835l-26.156,26.168 C90.359,439.49,87.13,440.722,83.902,440.722z"/> <path d="M134.297,479.403c-2.14,0-4.308-0.545-6.294-1.691c-6.032-3.482-8.099-11.195-4.616-17.227l18.501-32.045 c3.483-6.032,11.196-8.099,17.227-4.616c6.032,3.482,8.099,11.195,4.616,17.227l-18.501,32.045 C142.894,477.14,138.656,479.403,134.297,479.403z"/> <path d="M193.022,503.717c-1.08,0-2.178-0.14-3.27-0.433c-6.728-1.802-10.721-8.717-8.92-15.445l9.572-35.74 c1.802-6.728,8.717-10.722,15.445-8.92c6.728,1.802,10.721,8.717,8.92,15.445l-9.572,35.74 C203.686,500.001,198.59,503.717,193.022,503.717z"/> <path d="M256.006,512c-6.965,0-12.611-5.646-12.611-12.611V462.4c0-6.965,5.646-12.611,12.611-12.611 c6.965,0,12.611,5.646,12.611,12.611v36.988C268.617,506.354,262.971,512,256.006,512z"/> <path d="M318.991,503.717c-5.569,0-10.665-3.716-12.174-9.352l-9.572-35.74c-1.802-6.728,2.192-13.643,8.92-15.445 c6.723-1.798,13.643,2.192,15.445,8.92l9.572,35.74c1.802,6.728-2.192,13.643-8.92,15.445 C321.169,503.578,320.071,503.717,318.991,503.717z"/> <path d="M377.715,479.403c-4.358,0-8.597-2.261-10.933-6.307l-18.501-32.045c-3.483-6.032-1.416-13.745,4.616-17.227 c6.032-3.483,13.745-1.416,17.227,4.616l18.501,32.045c3.483,6.032,1.416,13.745-4.616,17.227 C382.023,478.857,379.855,479.403,377.715,479.403z"/> <path d="M428.111,440.722c-3.227,0-6.456-1.232-8.917-3.694l-26.168-26.168c-4.925-4.925-4.925-12.91,0-17.836 c4.925-4.923,12.91-4.923,17.836,0l26.168,26.168c4.925,4.925,4.925,12.91,0,17.836 C434.566,439.491,431.338,440.722,428.111,440.722z"/> <path d="M466.778,390.305c-2.139,0-4.305-0.544-6.29-1.69l-32.045-18.488c-6.033-3.481-8.101-11.192-4.621-17.226 c3.481-6.032,11.191-8.103,17.226-4.621l32.045,18.488c6.033,3.481,8.101,11.192,4.621,17.226 C475.377,388.041,471.137,390.305,466.778,390.305z"/> <path d="M491.111,331.614c-1.079,0-2.178-0.14-3.27-0.433l-35.74-9.572c-6.728-1.802-10.721-8.717-8.92-15.445 c1.801-6.728,8.717-10.721,15.445-8.92l35.74,9.572c6.728,1.802,10.721,8.717,8.92,15.445 C501.776,327.896,496.68,331.614,491.111,331.614z"/> <path d="M499.389,268.617H462.4c-6.965,0-12.611-5.646-12.611-12.611c0-6.965,5.646-12.611,12.611-12.611h36.988 c6.965,0,12.611,5.646,12.611,12.611C512,262.971,506.354,268.617,499.389,268.617z"/> <path d="M455.356,215.2c-5.569,0-10.665-3.717-12.174-9.352c-1.802-6.728,2.192-13.643,8.92-15.445l35.74-9.572 c6.726-1.8,13.643,2.192,15.445,8.92c1.802,6.728-2.192,13.643-8.92,15.445l-35.74,9.572 C457.534,215.06,456.435,215.2,455.356,215.2z"/> <path d="M434.755,165.41c-4.36,0-8.6-2.262-10.935-6.311c-3.481-6.033-1.412-13.745,4.621-17.226l32.045-18.488 c6.033-3.481,13.745-1.412,17.226,4.621c3.481,6.033,1.412,13.745-4.621,17.226l-32.045,18.488 C439.061,164.866,436.894,165.41,434.755,165.41z"/> <path d="M401.943,122.669c-3.228,0-6.457-1.232-8.92-3.696c-4.923-4.926-4.922-12.911,0.004-17.835l26.168-26.156 c4.927-4.925,12.911-4.921,17.835,0.004c4.923,4.926,4.922,12.911-0.004,17.835l-26.168,26.156 C408.396,121.438,405.168,122.669,401.943,122.669z"/> <path d="M359.192,89.87c-2.14,0-4.309-0.545-6.296-1.692c-6.031-3.483-8.096-11.196-4.613-17.228l18.501-32.032 c3.484-6.032,11.195-8.095,17.228-4.613c6.031,3.483,8.096,11.196,4.613,17.228l-18.501,32.032 C367.788,87.608,363.549,89.87,359.192,89.87z"/> <path d="M309.436,69.252c-1.081,0-2.178-0.14-3.271-0.433c-6.727-1.802-10.719-8.717-8.917-15.445l9.572-35.727 c1.802-6.728,8.717-10.721,15.445-8.917c6.727,1.802,10.719,8.717,8.917,15.445l-9.572,35.727 C320.1,65.535,315.004,69.252,309.436,69.252z"/> <path d="M255.994,374.655c-6.965,0-12.611-5.646-12.611-12.611s5.646-12.611,12.611-12.611c51.522,0,93.437-41.916,93.437-93.437 c0-6.965,5.646-12.611,12.611-12.611c6.965,0,12.611,5.646,12.611,12.611C374.655,321.424,321.424,374.655,255.994,374.655z"/> <path d="M362.043,233.609c-6.965,0-12.611-5.646-12.611-12.611v-4.408c0-6.965,5.646-12.611,12.611-12.611 s12.611,5.646,12.611,12.611v4.408C374.655,227.963,369.007,233.609,362.043,233.609z"/> </g>
</svg>